<mxfile host="65bd71144e">
    <diagram id="7txneoManCsuASgr4L0Q" name="Palindrom">
        <mxGraphModel dx="993" dy="405" grid="1" gridSize="10" guides="1" tooltips="1" connect="1" arrows="1" fold="1" page="1" pageScale="1" pageWidth="850" pageHeight="1100" math="0" shadow="0">
            <root>
                <mxCell id="0"/>
                <mxCell id="1" parent="0"/>
                <mxCell id="2" value="&lt;h1&gt;Pseudocode Algoritma Deteksi Palindrom&lt;/h1&gt;&lt;p&gt;DEKLARASI&lt;/p&gt;&lt;p&gt;&lt;span style=&quot;white-space: pre;&quot;&gt;&#9;&lt;/span&gt;str, strReverse: string;&lt;br&gt;&lt;/p&gt;&lt;p&gt;MULAI&lt;/p&gt;&lt;p&gt;&lt;span style=&quot;white-space: pre;&quot;&gt;&#9;&lt;/span&gt;input &quot;str&quot;;&lt;/p&gt;&lt;p&gt;&lt;span style=&quot;white-space: pre;&quot;&gt;&#9;&lt;/span&gt;input &quot;str = &quot;&quot; &quot;&lt;br&gt;&lt;/p&gt;&lt;p&gt;&lt;span style=&quot;white-space: pre;&quot;&gt;&#9;&lt;/span&gt;for (&lt;br&gt;&lt;/p&gt;&lt;p&gt;&lt;span style=&quot;white-space: pre;&quot;&gt;&lt;span style=&quot;white-space: pre;&quot;&gt;&#9;&lt;/span&gt;&#9;&lt;/span&gt;i = str.length - 1&lt;/p&gt;&lt;p&gt;&lt;span style=&quot;white-space: pre;&quot;&gt;&#9;&lt;span style=&quot;white-space: pre;&quot;&gt;&#9;&lt;/span&gt;&lt;/span&gt;if i &amp;gt;= 0&amp;nbsp; {&lt;span style=&quot;background-color: initial;&quot;&gt;strReverse = &lt;span style=&quot;white-space: pre;&quot;&gt;&#9;&lt;/span&gt;&lt;span style=&quot;white-space: pre;&quot;&gt;&#9;&lt;/span&gt;strReverse + str[i]&lt;/span&gt;&lt;span style=&quot;background-color: initial;&quot;&gt;&amp;nbsp;}&lt;/span&gt;&lt;/p&gt;&lt;p&gt;&lt;span style=&quot;white-space: pre;&quot;&gt;&#9;&lt;span style=&quot;white-space: pre;&quot;&gt;&#9;&lt;/span&gt;&lt;/span&gt;if str == strReverse { &lt;span style=&quot;white-space: pre;&quot;&gt;&#9;&lt;/span&gt;&lt;span style=&quot;white-space: pre;&quot;&gt;&#9;&lt;/span&gt;output(&quot;Palindrom&quot;)}&lt;/p&gt;&lt;p&gt;&lt;span style=&quot;white-space: pre;&quot;&gt;&lt;span style=&quot;white-space: pre;&quot;&gt;&#9;&lt;/span&gt;&#9;&lt;/span&gt;else {output(&quot;Not &lt;span style=&quot;white-space: pre;&quot;&gt;&#9;&lt;span style=&quot;white-space: pre;&quot;&gt;&#9;&lt;/span&gt;&lt;/span&gt;Palindrom&quot;)}&lt;/p&gt;&lt;p&gt;&lt;span style=&quot;white-space: pre;&quot;&gt;&#9;&lt;/span&gt;)&lt;br&gt;&lt;/p&gt;&lt;p&gt;SELESAI&lt;/p&gt;&lt;p&gt;&lt;span style=&quot;white-space: pre;&quot;&gt;&#9;&lt;/span&gt;&lt;br&gt;&lt;/p&gt;" style="text;html=1;strokeColor=none;fillColor=none;spacing=5;spacingTop=-20;whiteSpace=wrap;overflow=hidden;rounded=0;" vertex="1" parent="1">
                    <mxGeometry x="20" y="20" width="190" height="530" as="geometry"/>
                </mxCell>
                <mxCell id="3" value="&lt;h1&gt;Flow Chart Algortima Deteksi Palindrom&lt;/h1&gt;" style="text;html=1;strokeColor=none;fillColor=none;spacing=5;spacingTop=-20;whiteSpace=wrap;overflow=hidden;rounded=0;" vertex="1" parent="1">
                    <mxGeometry x="300" y="20" width="190" height="120" as="geometry"/>
                </mxCell>
                <mxCell id="6" value="" style="edgeStyle=none;html=1;" edge="1" parent="1" source="4" target="5">
                    <mxGeometry relative="1" as="geometry"/>
                </mxCell>
                <mxCell id="4" value="Mulai" style="ellipse;whiteSpace=wrap;html=1;" vertex="1" parent="1">
                    <mxGeometry x="300" y="160" width="120" height="40" as="geometry"/>
                </mxCell>
                <mxCell id="8" value="" style="edgeStyle=none;html=1;" edge="1" parent="1" source="5" target="7">
                    <mxGeometry relative="1" as="geometry"/>
                </mxCell>
                <mxCell id="5" value="str, strReverse" style="shape=parallelogram;perimeter=parallelogramPerimeter;whiteSpace=wrap;html=1;fixedSize=1;" vertex="1" parent="1">
                    <mxGeometry x="300" y="220" width="120" height="40" as="geometry"/>
                </mxCell>
                <mxCell id="10" value="" style="edgeStyle=none;html=1;" edge="1" parent="1" source="7" target="9">
                    <mxGeometry relative="1" as="geometry"/>
                </mxCell>
                <mxCell id="7" value="i = str.length - 1" style="whiteSpace=wrap;html=1;" vertex="1" parent="1">
                    <mxGeometry x="300" y="280" width="120" height="50" as="geometry"/>
                </mxCell>
                <mxCell id="29" style="edgeStyle=orthogonalEdgeStyle;html=1;exitX=0;exitY=0.5;exitDx=0;exitDy=0;entryX=0;entryY=0.5;entryDx=0;entryDy=0;" edge="1" parent="1" source="9" target="34">
                    <mxGeometry relative="1" as="geometry">
                        <mxPoint x="300" y="580" as="targetPoint"/>
                        <Array as="points">
                            <mxPoint x="210" y="395"/>
                            <mxPoint x="210" y="590"/>
                        </Array>
                    </mxGeometry>
                </mxCell>
                <mxCell id="33" value="Tidak" style="edgeLabel;html=1;align=center;verticalAlign=middle;resizable=0;points=[];" vertex="1" connectable="0" parent="29">
                    <mxGeometry x="-0.1767" y="2" relative="1" as="geometry">
                        <mxPoint y="1" as="offset"/>
                    </mxGeometry>
                </mxCell>
                <mxCell id="9" value="i &amp;gt;= 0" style="rhombus;whiteSpace=wrap;html=1;" vertex="1" parent="1">
                    <mxGeometry x="300" y="360" width="120" height="70" as="geometry"/>
                </mxCell>
                <mxCell id="18" style="edgeStyle=orthogonalEdgeStyle;html=1;exitX=1;exitY=0.5;exitDx=0;exitDy=0;entryX=0.5;entryY=1;entryDx=0;entryDy=0;" edge="1" parent="1" source="12" target="15">
                    <mxGeometry relative="1" as="geometry"/>
                </mxCell>
                <mxCell id="12" value="strReverse = strReverse + str[i]" style="shape=parallelogram;perimeter=parallelogramPerimeter;whiteSpace=wrap;html=1;fixedSize=1;" vertex="1" parent="1">
                    <mxGeometry x="260" y="480" width="200" height="40" as="geometry"/>
                </mxCell>
                <mxCell id="24" style="html=1;exitX=0;exitY=0.5;exitDx=0;exitDy=0;entryX=1;entryY=0.5;entryDx=0;entryDy=0;" edge="1" parent="1" source="15" target="9">
                    <mxGeometry relative="1" as="geometry"/>
                </mxCell>
                <mxCell id="15" value="i = i -1" style="whiteSpace=wrap;html=1;" vertex="1" parent="1">
                    <mxGeometry x="470" y="365" width="120" height="60" as="geometry"/>
                </mxCell>
                <mxCell id="21" value="" style="endArrow=classic;html=1;exitX=0.5;exitY=1;exitDx=0;exitDy=0;entryX=0.5;entryY=0;entryDx=0;entryDy=0;" edge="1" parent="1" source="9" target="12">
                    <mxGeometry relative="1" as="geometry">
                        <mxPoint x="370" y="440" as="sourcePoint"/>
                        <mxPoint x="480" y="440" as="targetPoint"/>
                    </mxGeometry>
                </mxCell>
                <mxCell id="22" value="Ya" style="edgeLabel;resizable=0;html=1;align=center;verticalAlign=middle;" connectable="0" vertex="1" parent="21">
                    <mxGeometry relative="1" as="geometry"/>
                </mxCell>
                <mxCell id="40" value="" style="edgeStyle=orthogonalEdgeStyle;html=1;" edge="1" parent="1" source="34" target="39">
                    <mxGeometry relative="1" as="geometry"/>
                </mxCell>
                <mxCell id="42" value="Ya" style="edgeLabel;html=1;align=center;verticalAlign=middle;resizable=0;points=[];" vertex="1" connectable="0" parent="40">
                    <mxGeometry x="-0.224" y="-1" relative="1" as="geometry">
                        <mxPoint as="offset"/>
                    </mxGeometry>
                </mxCell>
                <mxCell id="44" value="" style="edgeStyle=orthogonalEdgeStyle;html=1;" edge="1" parent="1" source="34" target="43">
                    <mxGeometry relative="1" as="geometry"/>
                </mxCell>
                <mxCell id="45" value="Tidak" style="edgeLabel;html=1;align=center;verticalAlign=middle;resizable=0;points=[];" vertex="1" connectable="0" parent="44">
                    <mxGeometry x="-0.193" y="1" relative="1" as="geometry">
                        <mxPoint as="offset"/>
                    </mxGeometry>
                </mxCell>
                <mxCell id="34" value="str == strReverse" style="rhombus;whiteSpace=wrap;html=1;" vertex="1" parent="1">
                    <mxGeometry x="290" y="550" width="140" height="80" as="geometry"/>
                </mxCell>
                <mxCell id="47" value="" style="edgeStyle=orthogonalEdgeStyle;html=1;" edge="1" parent="1" source="39" target="46">
                    <mxGeometry relative="1" as="geometry"/>
                </mxCell>
                <mxCell id="39" value="output(&quot;Palindrom&quot;)" style="shape=parallelogram;perimeter=parallelogramPerimeter;whiteSpace=wrap;html=1;fixedSize=1;" vertex="1" parent="1">
                    <mxGeometry x="270" y="680" width="180" height="70" as="geometry"/>
                </mxCell>
                <mxCell id="43" value="output(&quot;Not Palindrom&quot;)" style="shape=parallelogram;perimeter=parallelogramPerimeter;whiteSpace=wrap;html=1;fixedSize=1;" vertex="1" parent="1">
                    <mxGeometry x="490" y="560" width="170" height="60" as="geometry"/>
                </mxCell>
                <mxCell id="46" value="Selesai" style="ellipse;whiteSpace=wrap;html=1;" vertex="1" parent="1">
                    <mxGeometry x="270" y="780" width="180" height="60" as="geometry"/>
                </mxCell>
            </root>
        </mxGraphModel>
    </diagram>
    <diagram id="M7eEW8PlP7c6nZuphhha" name="Reverse Word">
        <mxGraphModel dx="844" dy="344" grid="1" gridSize="10" guides="1" tooltips="1" connect="1" arrows="1" fold="1" page="1" pageScale="1" pageWidth="850" pageHeight="1100" math="0" shadow="0">
            <root>
                <mxCell id="0"/>
                <mxCell id="1" parent="0"/>
                <mxCell id="r1RjSGCMKkACIec15hDH-1" value="&lt;h1&gt;Pseudocode Algoritma Reverse Word&lt;/h1&gt;&lt;p&gt;DEKLARASI&lt;/p&gt;&lt;p&gt;&lt;span style=&quot;&quot;&gt;&#9;&lt;/span&gt;&lt;span style=&quot;white-space: pre;&quot;&gt;&#9;&lt;/span&gt;str, strTemp, result: string;&lt;/p&gt;&lt;p&gt;&lt;span style=&quot;&quot;&gt;&#9;&lt;/span&gt;&lt;span style=&quot;white-space: pre;&quot;&gt;&#9;&lt;/span&gt;strReverse: Array;&lt;br&gt;&lt;/p&gt;&lt;p&gt;MULAI&lt;/p&gt;&lt;p&gt;&lt;span style=&quot;&quot;&gt;&#9;&lt;/span&gt;&lt;span style=&quot;white-space: pre;&quot;&gt;&#9;&lt;/span&gt;input &quot;str&quot;;&lt;/p&gt;&lt;p&gt;&lt;span style=&quot;&quot;&gt;&#9;&lt;/span&gt;&lt;span style=&quot;white-space: pre;&quot;&gt;&#9;&lt;/span&gt;input &quot;strTemp = &quot;&quot; &quot;;&lt;br&gt;&lt;/p&gt;&lt;p&gt;&lt;span style=&quot;white-space: pre;&quot;&gt;&#9;&lt;/span&gt;input &quot;strReverse = [] &quot;;&lt;br&gt;&lt;/p&gt;&lt;p&gt;&lt;span style=&quot;white-space: pre;&quot;&gt;&#9;&lt;/span&gt;input &quot;result = &quot;&quot; &quot;;&lt;br&gt;&lt;/p&gt;&lt;p&gt;&lt;span style=&quot;white-space: pre;&quot;&gt;&#9;&lt;/span&gt;for loop(&lt;br&gt;&lt;/p&gt;&lt;p&gt;&lt;span style=&quot;&quot;&gt;&#9;&lt;/span&gt;&lt;span style=&quot;white-space: pre;&quot;&gt;&lt;span style=&quot;white-space: pre;&quot;&gt;&#9;&lt;/span&gt;&#9;&lt;/span&gt;i = 0&lt;/p&gt;&lt;p&gt;&lt;span style=&quot;&quot;&gt;&#9;&lt;/span&gt;&lt;span style=&quot;white-space: pre;&quot;&gt;&#9;&lt;span style=&quot;white-space: pre;&quot;&gt;&#9;&lt;/span&gt;&lt;/span&gt;if (i &amp;lt; str.length){&lt;br&gt;&lt;/p&gt;&lt;p&gt;&lt;span style=&quot;&quot;&gt;&#9;&lt;/span&gt;&lt;span style=&quot;&quot;&gt;&#9;&lt;/span&gt;&lt;span style=&quot;white-space: pre;&quot;&gt;&lt;span style=&quot;white-space: pre;&quot;&gt;&#9;&lt;/span&gt;&#9;&lt;span style=&quot;white-space: pre;&quot;&gt;&#9;&lt;/span&gt;&lt;/span&gt;if (str[ i ] == &quot; &quot;){&lt;br&gt;&lt;/p&gt;&lt;p&gt;&lt;span style=&quot;&quot;&gt;&#9;&lt;/span&gt;&lt;span style=&quot;&quot;&gt;&#9;&lt;/span&gt;&lt;span style=&quot;&quot;&gt;&#9;&lt;/span&gt;&lt;span style=&quot;white-space: pre;&quot;&gt;&#9;&lt;span style=&quot;white-space: pre;&quot;&gt;&#9;&lt;/span&gt;&lt;/span&gt;&lt;span style=&quot;white-space: pre;&quot;&gt;&#9;&lt;span style=&quot;white-space: pre;&quot;&gt;&#9;&lt;/span&gt;&lt;/span&gt;strReverse = strReverse + strTemp&lt;/p&gt;&lt;p&gt;&lt;span style=&quot;&quot;&gt;&#9;&lt;/span&gt;&lt;span style=&quot;&quot;&gt;&#9;&lt;/span&gt;&lt;span style=&quot;white-space: pre;&quot;&gt;&lt;span style=&quot;white-space: pre;&quot;&gt;&#9;&lt;/span&gt;&lt;span style=&quot;white-space: pre;&quot;&gt;&#9;&lt;/span&gt;&#9;&lt;/span&gt;&lt;span style=&quot;white-space: pre;&quot;&gt;&#9;&lt;/span&gt;} else {&lt;br&gt;&lt;/p&gt;&lt;p&gt;&lt;span style=&quot;white-space: pre;&quot;&gt;&lt;span style=&quot;white-space: pre;&quot;&gt;&lt;span style=&quot;white-space: pre;&quot;&gt;&#9;&lt;/span&gt;&lt;span style=&quot;white-space: pre;&quot;&gt;&#9;&lt;span style=&quot;white-space: pre;&quot;&gt;&#9;&lt;/span&gt;&lt;span style=&quot;white-space: pre;&quot;&gt;&#9;&lt;/span&gt;&lt;/span&gt;&lt;/span&gt;strTemp = strTemp + str[i];&lt;/span&gt;&lt;br&gt;&lt;/p&gt;&lt;p&gt;&lt;span style=&quot;white-space: pre;&quot;&gt;&lt;span style=&quot;white-space: pre;&quot;&gt;&#9;&lt;/span&gt;&lt;span style=&quot;white-space: pre;&quot;&gt;&#9;&lt;span style=&quot;white-space: pre;&quot;&gt;&#9;&lt;/span&gt;&lt;span style=&quot;white-space: pre;&quot;&gt;&#9;&lt;/span&gt;&lt;/span&gt;}&lt;br&gt;&lt;/span&gt;&lt;/p&gt;&lt;p&gt;&lt;span style=&quot;&quot;&gt;&lt;span style=&quot;&quot;&gt;&#9;&lt;/span&gt;&lt;span style=&quot;white-space: pre;&quot;&gt;&lt;span style=&quot;white-space: pre;&quot;&gt;&#9;&lt;/span&gt;&lt;span style=&quot;white-space: pre;&quot;&gt;&#9;&lt;/span&gt;&#9;&lt;/span&gt;&lt;span style=&quot;white-space: pre;&quot;&gt;&#9;&lt;/span&gt;i = i + 1&lt;/span&gt;&lt;/p&gt;&lt;p&gt;&lt;span style=&quot;&quot;&gt;&lt;span style=&quot;white-space: pre;&quot;&gt;&#9;&lt;/span&gt;&lt;span style=&quot;white-space: pre;&quot;&gt;&#9;&lt;/span&gt;&lt;span style=&quot;white-space: pre;&quot;&gt;&#9;&lt;/span&gt;}&lt;br&gt;&lt;/span&gt;&lt;/p&gt;&lt;p&gt;&lt;span style=&quot;&quot;&gt;&lt;span style=&quot;white-space: pre;&quot;&gt;&#9;&lt;span style=&quot;white-space: pre;&quot;&gt;&#9;&lt;/span&gt;&lt;/span&gt;}&lt;br&gt;&lt;/span&gt;&lt;/p&gt;&lt;p&gt;&lt;span style=&quot;&quot;&gt;&lt;span style=&quot;white-space: pre;&quot;&gt;&#9;&lt;/span&gt;)&lt;br&gt;&lt;/span&gt;&lt;/p&gt;&lt;p&gt;&lt;span style=&quot;&quot;&gt;&lt;span style=&quot;white-space: pre;&quot;&gt;&#9;&lt;/span&gt;for loop(&lt;/span&gt;&lt;/p&gt;&lt;p&gt;&lt;span style=&quot;&quot;&gt;&lt;span style=&quot;white-space: pre;&quot;&gt;&lt;span style=&quot;white-space: pre;&quot;&gt;&#9;&lt;/span&gt;&lt;span style=&quot;white-space: pre;&quot;&gt;&#9;&lt;/span&gt;j = strReverse.length - 1&lt;/span&gt;&lt;/span&gt;&lt;/p&gt;&lt;p&gt;&lt;span style=&quot;&quot;&gt;&lt;span style=&quot;white-space: pre;&quot;&gt;&lt;span style=&quot;white-space: pre;&quot;&gt;&#9;&lt;/span&gt;&lt;span style=&quot;white-space: pre;&quot;&gt;&#9;&lt;/span&gt;if ( j &#9;&amp;gt;= 0) {&lt;/span&gt;&lt;br&gt;&lt;/span&gt;&lt;/p&gt;&lt;p&gt;&lt;span style=&quot;&quot;&gt;&lt;span style=&quot;white-space: pre;&quot;&gt;&lt;span style=&quot;white-space: pre;&quot;&gt;&#9;&lt;/span&gt;&lt;span style=&quot;white-space: pre;&quot;&gt;&#9;&lt;/span&gt;&lt;span style=&quot;white-space: pre;&quot;&gt;&#9;&lt;/span&gt;if ( j == 0) {&lt;br&gt;&lt;/span&gt;&lt;/span&gt;&lt;/p&gt;&lt;p&gt;&lt;span style=&quot;&quot;&gt;&lt;span style=&quot;white-space: pre;&quot;&gt;&lt;span style=&quot;white-space: pre;&quot;&gt;&#9;&lt;/span&gt;&lt;span style=&quot;white-space: pre;&quot;&gt;&#9;&lt;/span&gt;&lt;span style=&quot;white-space: pre;&quot;&gt;&#9;&lt;/span&gt;&lt;span style=&quot;white-space: pre;&quot;&gt;&#9;&lt;/span&gt;result = result + strReverse[ j ];&lt;/span&gt;&lt;/span&gt;&lt;/p&gt;&lt;p&gt;&lt;span style=&quot;&quot;&gt;&lt;span style=&quot;white-space: pre;&quot;&gt;&lt;span style=&quot;white-space: pre;&quot;&gt;&#9;&lt;/span&gt;&lt;span style=&quot;white-space: pre;&quot;&gt;&#9;&lt;/span&gt;&lt;span style=&quot;white-space: pre;&quot;&gt;&#9;&lt;/span&gt;} else {&lt;br&gt;&lt;/span&gt;&lt;/span&gt;&lt;/p&gt;&lt;p&gt;&lt;span style=&quot;&quot;&gt;&lt;span style=&quot;white-space: pre;&quot;&gt;&lt;span style=&quot;white-space: pre;&quot;&gt;&#9;&lt;/span&gt;&lt;span style=&quot;white-space: pre;&quot;&gt;&#9;&lt;/span&gt;&lt;span style=&quot;white-space: pre;&quot;&gt;&#9;&lt;/span&gt;&lt;span style=&quot;white-space: pre;&quot;&gt;&#9;&lt;/span&gt;result = result + strReverse[ j ];&lt;br&gt;&lt;/span&gt;&lt;/span&gt;&lt;/p&gt;&lt;p&gt;&lt;span style=&quot;&quot;&gt;&lt;span style=&quot;white-space: pre;&quot;&gt;&lt;span style=&quot;white-space: pre;&quot;&gt;&#9;&lt;/span&gt;&lt;span style=&quot;white-space: pre;&quot;&gt;&#9;&lt;/span&gt;&lt;span style=&quot;white-space: pre;&quot;&gt;&#9;&lt;/span&gt;&lt;span style=&quot;white-space: pre;&quot;&gt;&#9;&lt;/span&gt;result = result + &quot; &quot;&lt;br&gt;&lt;/span&gt;&lt;/span&gt;&lt;/p&gt;&lt;p&gt;&lt;span style=&quot;&quot;&gt;&lt;span style=&quot;white-space: pre;&quot;&gt;&lt;span style=&quot;white-space: pre;&quot;&gt;&#9;&lt;/span&gt;&lt;span style=&quot;white-space: pre;&quot;&gt;&#9;&lt;/span&gt;&lt;span style=&quot;white-space: pre;&quot;&gt;&#9;&lt;/span&gt;}&lt;br&gt;&lt;/span&gt;&lt;/span&gt;&lt;/p&gt;&lt;p&gt;&lt;span style=&quot;&quot;&gt;&lt;span style=&quot;white-space: pre;&quot;&gt;&lt;span style=&quot;white-space: pre;&quot;&gt;&#9;&lt;/span&gt;&lt;span style=&quot;white-space: pre;&quot;&gt;&#9;&lt;/span&gt;j = j - 1&lt;br&gt;&lt;/span&gt;&lt;/span&gt;&lt;/p&gt;&lt;p&gt;&lt;span style=&quot;&quot;&gt;&lt;span style=&quot;white-space: pre;&quot;&gt;&lt;span style=&quot;white-space: pre;&quot;&gt;&#9;&lt;/span&gt;&lt;span style=&quot;white-space: pre;&quot;&gt;&#9;&lt;/span&gt;}&lt;br&gt;&lt;/span&gt;&lt;/span&gt;&lt;/p&gt;&lt;p&gt;&lt;span style=&quot;&quot;&gt;&lt;span style=&quot;white-space: pre;&quot;&gt;&#9;&lt;/span&gt;)&lt;br&gt;&lt;/span&gt;&lt;/p&gt;&lt;p&gt;&lt;span style=&quot;&quot;&gt;&lt;span style=&quot;white-space: pre;&quot;&gt;&lt;span style=&quot;white-space: pre;&quot;&gt;&#9;&lt;/span&gt;output(result)&lt;/span&gt;&lt;br&gt;&lt;/span&gt;&lt;/p&gt;&lt;p&gt;SELESAI&lt;/p&gt;&lt;p&gt;&lt;span style=&quot;&quot;&gt;&#9;&lt;/span&gt;&lt;br&gt;&lt;/p&gt;" style="text;html=1;strokeColor=none;fillColor=none;spacing=5;spacingTop=-20;whiteSpace=wrap;overflow=hidden;rounded=0;" vertex="1" parent="1">
                    <mxGeometry x="19" y="20" width="310" height="980" as="geometry"/>
                </mxCell>
                <mxCell id="7gUeaLYxQFYsXjGWmaTC-4" value="" style="edgeStyle=orthogonalEdgeStyle;html=1;" edge="1" parent="1" source="7gUeaLYxQFYsXjGWmaTC-1" target="7gUeaLYxQFYsXjGWmaTC-3">
                    <mxGeometry relative="1" as="geometry"/>
                </mxCell>
                <mxCell id="7gUeaLYxQFYsXjGWmaTC-1" value="Mulai" style="ellipse;whiteSpace=wrap;html=1;" vertex="1" parent="1">
                    <mxGeometry x="385" y="120" width="120" height="50" as="geometry"/>
                </mxCell>
                <mxCell id="7gUeaLYxQFYsXjGWmaTC-2" value="&lt;h1&gt;&lt;span style=&quot;background-color: initial;&quot;&gt;Flow Chart Algoritma Reverse Word&lt;/span&gt;&lt;/h1&gt;" style="text;html=1;strokeColor=none;fillColor=none;spacing=5;spacingTop=-20;whiteSpace=wrap;overflow=hidden;rounded=0;" vertex="1" parent="1">
                    <mxGeometry x="370" y="20" width="190" height="90" as="geometry"/>
                </mxCell>
                <mxCell id="7gUeaLYxQFYsXjGWmaTC-6" value="" style="edgeStyle=orthogonalEdgeStyle;html=1;" edge="1" parent="1" source="7gUeaLYxQFYsXjGWmaTC-3" target="7gUeaLYxQFYsXjGWmaTC-5">
                    <mxGeometry relative="1" as="geometry"/>
                </mxCell>
                <mxCell id="7gUeaLYxQFYsXjGWmaTC-3" value="str, strTemp, result, strArr" style="shape=parallelogram;perimeter=parallelogramPerimeter;whiteSpace=wrap;html=1;fixedSize=1;" vertex="1" parent="1">
                    <mxGeometry x="330" y="190" width="230" height="50" as="geometry"/>
                </mxCell>
                <mxCell id="7gUeaLYxQFYsXjGWmaTC-8" value="" style="edgeStyle=orthogonalEdgeStyle;html=1;" edge="1" parent="1" source="7gUeaLYxQFYsXjGWmaTC-5" target="7gUeaLYxQFYsXjGWmaTC-7">
                    <mxGeometry relative="1" as="geometry"/>
                </mxCell>
                <mxCell id="7gUeaLYxQFYsXjGWmaTC-5" value="i = 0" style="whiteSpace=wrap;html=1;" vertex="1" parent="1">
                    <mxGeometry x="385" y="270" width="120" height="40" as="geometry"/>
                </mxCell>
                <mxCell id="7gUeaLYxQFYsXjGWmaTC-14" value="" style="edgeStyle=orthogonalEdgeStyle;html=1;exitX=0.5;exitY=1;exitDx=0;exitDy=0;" edge="1" parent="1" source="7gUeaLYxQFYsXjGWmaTC-7" target="7gUeaLYxQFYsXjGWmaTC-13">
                    <mxGeometry relative="1" as="geometry">
                        <mxPoint x="445" y="409" as="sourcePoint"/>
                    </mxGeometry>
                </mxCell>
                <mxCell id="7gUeaLYxQFYsXjGWmaTC-23" value="Ya" style="edgeLabel;html=1;align=center;verticalAlign=middle;resizable=0;points=[];" vertex="1" connectable="0" parent="7gUeaLYxQFYsXjGWmaTC-14">
                    <mxGeometry x="-0.2458" relative="1" as="geometry">
                        <mxPoint as="offset"/>
                    </mxGeometry>
                </mxCell>
                <mxCell id="7gUeaLYxQFYsXjGWmaTC-7" value="i &amp;lt; str.length" style="rhombus;whiteSpace=wrap;html=1;" vertex="1" parent="1">
                    <mxGeometry x="380" y="330" width="130" height="60" as="geometry"/>
                </mxCell>
                <mxCell id="7gUeaLYxQFYsXjGWmaTC-16" value="" style="edgeStyle=orthogonalEdgeStyle;html=1;" edge="1" parent="1" source="7gUeaLYxQFYsXjGWmaTC-13" target="7gUeaLYxQFYsXjGWmaTC-15">
                    <mxGeometry relative="1" as="geometry"/>
                </mxCell>
                <mxCell id="7gUeaLYxQFYsXjGWmaTC-24" value="Ya" style="edgeLabel;html=1;align=center;verticalAlign=middle;resizable=0;points=[];" vertex="1" connectable="0" parent="7gUeaLYxQFYsXjGWmaTC-16">
                    <mxGeometry x="-0.28" relative="1" as="geometry">
                        <mxPoint as="offset"/>
                    </mxGeometry>
                </mxCell>
                <mxCell id="7gUeaLYxQFYsXjGWmaTC-20" value="" style="edgeStyle=orthogonalEdgeStyle;html=1;" edge="1" parent="1" source="7gUeaLYxQFYsXjGWmaTC-13" target="7gUeaLYxQFYsXjGWmaTC-19">
                    <mxGeometry relative="1" as="geometry"/>
                </mxCell>
                <mxCell id="7gUeaLYxQFYsXjGWmaTC-25" value="Tidak" style="edgeLabel;html=1;align=center;verticalAlign=middle;resizable=0;points=[];" vertex="1" connectable="0" parent="7gUeaLYxQFYsXjGWmaTC-20">
                    <mxGeometry x="-0.1056" y="1" relative="1" as="geometry">
                        <mxPoint as="offset"/>
                    </mxGeometry>
                </mxCell>
                <mxCell id="7gUeaLYxQFYsXjGWmaTC-13" value="str[i] == &quot; &quot;" style="rhombus;whiteSpace=wrap;html=1;" vertex="1" parent="1">
                    <mxGeometry x="380" y="429" width="130" height="60" as="geometry"/>
                </mxCell>
                <mxCell id="7gUeaLYxQFYsXjGWmaTC-18" value="" style="edgeStyle=orthogonalEdgeStyle;html=1;" edge="1" parent="1" source="7gUeaLYxQFYsXjGWmaTC-15" target="7gUeaLYxQFYsXjGWmaTC-17">
                    <mxGeometry relative="1" as="geometry"/>
                </mxCell>
                <mxCell id="7gUeaLYxQFYsXjGWmaTC-15" value="strArr = strArr + strTemp" style="shape=parallelogram;perimeter=parallelogramPerimeter;whiteSpace=wrap;html=1;fixedSize=1;" vertex="1" parent="1">
                    <mxGeometry x="385" y="519" width="120" height="40" as="geometry"/>
                </mxCell>
                <mxCell id="7gUeaLYxQFYsXjGWmaTC-22" style="edgeStyle=orthogonalEdgeStyle;html=1;exitX=0.5;exitY=0;exitDx=0;exitDy=0;entryX=1;entryY=0.5;entryDx=0;entryDy=0;" edge="1" parent="1" source="7gUeaLYxQFYsXjGWmaTC-17" target="7gUeaLYxQFYsXjGWmaTC-7">
                    <mxGeometry relative="1" as="geometry">
                        <Array as="points">
                            <mxPoint x="795" y="360"/>
                        </Array>
                    </mxGeometry>
                </mxCell>
                <mxCell id="7gUeaLYxQFYsXjGWmaTC-17" value="i = i + 1" style="whiteSpace=wrap;html=1;" vertex="1" parent="1">
                    <mxGeometry x="760" y="380" width="70" height="60" as="geometry"/>
                </mxCell>
                <mxCell id="7gUeaLYxQFYsXjGWmaTC-19" value="strTemp = strTemp&amp;nbsp; + str[i]" style="shape=parallelogram;perimeter=parallelogramPerimeter;whiteSpace=wrap;html=1;fixedSize=1;" vertex="1" parent="1">
                    <mxGeometry x="550" y="429" width="170" height="60" as="geometry"/>
                </mxCell>
                <mxCell id="7gUeaLYxQFYsXjGWmaTC-21" value="" style="endArrow=classic;html=1;exitX=1;exitY=0.5;exitDx=0;exitDy=0;entryX=0;entryY=0.5;entryDx=0;entryDy=0;" edge="1" parent="1" source="7gUeaLYxQFYsXjGWmaTC-19" target="7gUeaLYxQFYsXjGWmaTC-17">
                    <mxGeometry width="50" height="50" relative="1" as="geometry">
                        <mxPoint x="680" y="419" as="sourcePoint"/>
                        <mxPoint x="730" y="369" as="targetPoint"/>
                        <Array as="points">
                            <mxPoint x="740" y="460"/>
                            <mxPoint x="740" y="400"/>
                            <mxPoint x="740" y="410"/>
                        </Array>
                    </mxGeometry>
                </mxCell>
                <mxCell id="7gUeaLYxQFYsXjGWmaTC-30" value="" style="endArrow=classic;html=1;exitX=0;exitY=0.5;exitDx=0;exitDy=0;entryX=0;entryY=0.5;entryDx=0;entryDy=0;" edge="1" parent="1" source="7gUeaLYxQFYsXjGWmaTC-7" target="SNQqZgsyfXE0mI_fj7FY-1">
                    <mxGeometry width="50" height="50" relative="1" as="geometry">
                        <mxPoint x="590" y="590" as="sourcePoint"/>
                        <mxPoint x="380" y="610" as="targetPoint"/>
                        <Array as="points">
                            <mxPoint x="340" y="360"/>
                            <mxPoint x="340" y="610"/>
                        </Array>
                    </mxGeometry>
                </mxCell>
                <mxCell id="7gUeaLYxQFYsXjGWmaTC-31" value="Tidak" style="edgeLabel;html=1;align=center;verticalAlign=middle;resizable=0;points=[];" vertex="1" connectable="0" parent="7gUeaLYxQFYsXjGWmaTC-30">
                    <mxGeometry x="0.1902" y="-1" relative="1" as="geometry">
                        <mxPoint as="offset"/>
                    </mxGeometry>
                </mxCell>
                <mxCell id="SNQqZgsyfXE0mI_fj7FY-3" value="" style="edgeStyle=orthogonalEdgeStyle;html=1;" edge="1" parent="1" source="SNQqZgsyfXE0mI_fj7FY-1" target="SNQqZgsyfXE0mI_fj7FY-2">
                    <mxGeometry relative="1" as="geometry"/>
                </mxCell>
                <mxCell id="SNQqZgsyfXE0mI_fj7FY-1" value="j = strArr.length - 1" style="rounded=0;whiteSpace=wrap;html=1;" vertex="1" parent="1">
                    <mxGeometry x="370" y="590" width="150" height="40" as="geometry"/>
                </mxCell>
                <mxCell id="SNQqZgsyfXE0mI_fj7FY-5" value="" style="edgeStyle=orthogonalEdgeStyle;html=1;" edge="1" parent="1" source="SNQqZgsyfXE0mI_fj7FY-2" target="SNQqZgsyfXE0mI_fj7FY-4">
                    <mxGeometry relative="1" as="geometry"/>
                </mxCell>
                <mxCell id="SNQqZgsyfXE0mI_fj7FY-6" value="Ya" style="edgeLabel;html=1;align=center;verticalAlign=middle;resizable=0;points=[];" vertex="1" connectable="0" parent="SNQqZgsyfXE0mI_fj7FY-5">
                    <mxGeometry x="-0.3478" y="1" relative="1" as="geometry">
                        <mxPoint as="offset"/>
                    </mxGeometry>
                </mxCell>
                <mxCell id="PotSLgJ3S5QGNQomjdIC-1" style="edgeStyle=orthogonalEdgeStyle;html=1;exitX=0;exitY=0.5;exitDx=0;exitDy=0;entryX=0;entryY=0.5;entryDx=0;entryDy=0;" edge="1" parent="1" source="SNQqZgsyfXE0mI_fj7FY-2" target="SNQqZgsyfXE0mI_fj7FY-22">
                    <mxGeometry relative="1" as="geometry">
                        <Array as="points">
                            <mxPoint x="330" y="680"/>
                            <mxPoint x="330" y="1000"/>
                        </Array>
                    </mxGeometry>
                </mxCell>
                <mxCell id="SNQqZgsyfXE0mI_fj7FY-2" value="j &amp;gt;= 0" style="rhombus;whiteSpace=wrap;html=1;rounded=0;" vertex="1" parent="1">
                    <mxGeometry x="390" y="650" width="110" height="60" as="geometry"/>
                </mxCell>
                <mxCell id="SNQqZgsyfXE0mI_fj7FY-8" value="" style="edgeStyle=orthogonalEdgeStyle;html=1;" edge="1" parent="1" source="SNQqZgsyfXE0mI_fj7FY-4" target="SNQqZgsyfXE0mI_fj7FY-7">
                    <mxGeometry relative="1" as="geometry"/>
                </mxCell>
                <mxCell id="SNQqZgsyfXE0mI_fj7FY-9" value="Ya" style="edgeLabel;html=1;align=center;verticalAlign=middle;resizable=0;points=[];" vertex="1" connectable="0" parent="SNQqZgsyfXE0mI_fj7FY-8">
                    <mxGeometry x="-0.6756" relative="1" as="geometry">
                        <mxPoint as="offset"/>
                    </mxGeometry>
                </mxCell>
                <mxCell id="SNQqZgsyfXE0mI_fj7FY-13" value="" style="edgeStyle=orthogonalEdgeStyle;html=1;" edge="1" parent="1" source="SNQqZgsyfXE0mI_fj7FY-4" target="SNQqZgsyfXE0mI_fj7FY-12">
                    <mxGeometry relative="1" as="geometry"/>
                </mxCell>
                <mxCell id="SNQqZgsyfXE0mI_fj7FY-14" value="Tidak" style="edgeLabel;html=1;align=center;verticalAlign=middle;resizable=0;points=[];" vertex="1" connectable="0" parent="SNQqZgsyfXE0mI_fj7FY-13">
                    <mxGeometry x="-0.2425" y="-2" relative="1" as="geometry">
                        <mxPoint as="offset"/>
                    </mxGeometry>
                </mxCell>
                <mxCell id="SNQqZgsyfXE0mI_fj7FY-4" value="j == 0" style="rhombus;whiteSpace=wrap;html=1;rounded=0;" vertex="1" parent="1">
                    <mxGeometry x="390" y="830" width="110" height="50" as="geometry"/>
                </mxCell>
                <mxCell id="SNQqZgsyfXE0mI_fj7FY-11" value="" style="edgeStyle=orthogonalEdgeStyle;html=1;" edge="1" parent="1" source="SNQqZgsyfXE0mI_fj7FY-7" target="SNQqZgsyfXE0mI_fj7FY-10">
                    <mxGeometry relative="1" as="geometry"/>
                </mxCell>
                <mxCell id="SNQqZgsyfXE0mI_fj7FY-7" value="result = result + strArr[ j ]" style="shape=parallelogram;perimeter=parallelogramPerimeter;whiteSpace=wrap;html=1;fixedSize=1;rounded=0;" vertex="1" parent="1">
                    <mxGeometry x="385" y="920" width="120" height="40" as="geometry"/>
                </mxCell>
                <mxCell id="SNQqZgsyfXE0mI_fj7FY-19" style="edgeStyle=orthogonalEdgeStyle;html=1;exitX=0.5;exitY=0;exitDx=0;exitDy=0;" edge="1" parent="1" source="SNQqZgsyfXE0mI_fj7FY-10" target="SNQqZgsyfXE0mI_fj7FY-2">
                    <mxGeometry relative="1" as="geometry"/>
                </mxCell>
                <mxCell id="SNQqZgsyfXE0mI_fj7FY-10" value="j = j - 1" style="whiteSpace=wrap;html=1;rounded=0;" vertex="1" parent="1">
                    <mxGeometry x="720" y="695" width="95" height="40" as="geometry"/>
                </mxCell>
                <mxCell id="SNQqZgsyfXE0mI_fj7FY-17" value="" style="edgeStyle=orthogonalEdgeStyle;html=1;" edge="1" parent="1" source="SNQqZgsyfXE0mI_fj7FY-12" target="SNQqZgsyfXE0mI_fj7FY-16">
                    <mxGeometry relative="1" as="geometry"/>
                </mxCell>
                <mxCell id="SNQqZgsyfXE0mI_fj7FY-12" value="result = result + strArr[j]" style="shape=parallelogram;perimeter=parallelogramPerimeter;whiteSpace=wrap;html=1;fixedSize=1;rounded=0;" vertex="1" parent="1">
                    <mxGeometry x="560" y="820" width="120" height="60" as="geometry"/>
                </mxCell>
                <mxCell id="SNQqZgsyfXE0mI_fj7FY-18" style="edgeStyle=orthogonalEdgeStyle;html=1;exitX=0.5;exitY=0;exitDx=0;exitDy=0;entryX=0;entryY=0.5;entryDx=0;entryDy=0;" edge="1" parent="1" source="SNQqZgsyfXE0mI_fj7FY-16" target="SNQqZgsyfXE0mI_fj7FY-10">
                    <mxGeometry relative="1" as="geometry"/>
                </mxCell>
                <mxCell id="SNQqZgsyfXE0mI_fj7FY-16" value="result = result + &quot;&amp;nbsp; &quot;" style="shape=parallelogram;perimeter=parallelogramPerimeter;whiteSpace=wrap;html=1;fixedSize=1;rounded=0;" vertex="1" parent="1">
                    <mxGeometry x="555" y="735" width="130" height="60" as="geometry"/>
                </mxCell>
                <mxCell id="PotSLgJ3S5QGNQomjdIC-3" value="" style="edgeStyle=orthogonalEdgeStyle;html=1;" edge="1" parent="1" source="SNQqZgsyfXE0mI_fj7FY-22" target="PotSLgJ3S5QGNQomjdIC-2">
                    <mxGeometry relative="1" as="geometry"/>
                </mxCell>
                <mxCell id="SNQqZgsyfXE0mI_fj7FY-22" value="output(result)" style="shape=parallelogram;perimeter=parallelogramPerimeter;whiteSpace=wrap;html=1;fixedSize=1;" vertex="1" parent="1">
                    <mxGeometry x="385" y="980" width="120" height="40" as="geometry"/>
                </mxCell>
                <mxCell id="PotSLgJ3S5QGNQomjdIC-2" value="Selesai" style="ellipse;whiteSpace=wrap;html=1;" vertex="1" parent="1">
                    <mxGeometry x="380" y="1040" width="130" height="40" as="geometry"/>
                </mxCell>
            </root>
        </mxGraphModel>
    </diagram>
</mxfile>